#!OML:ASF H:\Terrain\Walking\May29\JustinRory\Justin.ASF
:FULLY-SPECIFIED
:DEGREES
289
root 7.63241 16.7691 -16.0191 0.295983 -0.639818 -1.12514
lowerback 12.4821 0.294368 -0.626397
upperback 4.62723 0.407335 3.01258
thorax -2.17367 0.178007 3.43809
lowerneck -18.6433 -3.23263 -9.72281
upperneck 7.23402 -2.77696 6.69192
head 5.41618 -1.14685 3.41877
rclavicle -1.07344e-014 -1.59028e-015
rhumerus -42.8839 30.5072 -75.8758
rradius 135.241
rwrist -16.7013
rhand -18.6809 41.9326
rfingers 7.12502
rthumb 7.61318 12.0896
lclavicle -1.07344e-014 -1.59028e-015
lhumerus -42.5225 -15.6455 89.4333
lradius 129.781
lwrist 2.23419
lhand -0.552952 17.5313
lfingers 7.12502
lthumb 25.0606 45.9071
rfemur -17.2882 -6.49495 19.5074
rtibia 43.8813
rfoot -22.9484 -10.3067
rtoes -6.66248
lfemur -17.5803 7.97147 -14.1529
ltibia 44.1796
lfoot -24.4503 -0.935557
ltoes -19.6374
290
root 7.63408 16.7672 -16.0287 0.313415 -0.888015 -1.48147
lowerback 12.6943 0.267058 -0.256013
upperback 4.39346 0.426519 3.11127
thorax -2.53291 0.19412 3.32994
lowerneck -18.1301 -3.07111 -9.52393
upperneck 7.19529 -2.63374 6.5024
head 5.30513 -1.09324 3.34141
rclavicle -3.97569e-016 -1.11319e-014
rhumerus -42.6818 33.1696 -73.8607
rradius 135.352
rwrist -17.1554
rhand -20.6299 42.519
rfingers 7.12502
rthumb 5.73165 12.6165
lclavicle -3.97569e-016 -1.11319e-014
lhumerus -43.4506 -17.3445 87.4556
lradius 130.53
lwrist 2.63732
lhand 0.654102 17.686
lfingers 7.12502
lthumb 26.2167 45.8952
rfemur -17.3092 -6.19421 19.9204
rtibia 43.7108
rfoot -22.7526 -10.4047
rtoes -6.49171
lfemur -17.6413 8.03854 -13.76
ltibia 44.2747
lfoot -24.4213 -0.987138
ltoes -19.2215
291
root 7.63891 16.768 -16.0368 0.291917 -1.09157 -1.57205
lowerback 12.9611 0.287016 -0.243828
upperback 4.12959 0.4716 3.28648
thorax -2.95757 0.221715 3.50276
lowerneck -17.9832 -2.95154 -9.42203
upperneck 7.48742 -2.47392 6.12215
head 5.35372 -1.04539 3.21999
rclavicle 7.35503e-015 7.15625e-015
rhumerus -42.0311 35.7304 -71.2527
rradius 135.406
rwrist -17.9393
rhand -22.604 42.6943
rfingers 7.12502
rthumb 3.82551 12.7489
lclavicle 7.35503e-015 7.15625e-015
lhumerus -43.9608 -19.1926 85.4772
lradius 130.959
lwrist 3.13252
lhand 1.38779 18.0628
lfingers 7.12502
lthumb 26.919 46.1657
rfemur -17.295 -6.00871 20.0087
rtibia 43.5912
rfoot -22.5768 -10.3668
rtoes -5.91289
lfemur -17.6292 8.00687 -13.6868
ltibia 44.3411
lfoot -24.3855 -0.919947
ltoes -18.9385
292
root 7.6441 16.7763 -16.0443 0.211014 -1.23229 -1.61706
lowerback 13.2323 0.306967 -0.240861
upperback 3.98801 0.513592 3.46362
thorax -3.25714 0.246006 3.68351
lowerneck -18.203 -2.88732 -9.38647
upperneck 8.0027 -2.34048 5.73657
head 5.53508 -1.01068 3.10493
rclavicle -8.15017e-015 -2.62396e-014
rhumerus -40.8265 38.1325 -68.1763
rradius 135.553
rwrist -19.2014
rhand -24.651 42.8588
rfingers 7.12502
rthumb 1.84867 12.8871
lclavicle -8.15017e-015 -2.62396e-014
lhumerus -43.912 -20.7963 83.3562
lradius 131.029
lwrist 3.70765
lhand 2.2749 18.1338
lfingers 7.12502
lthumb 27.7675 46.1029
rfemur -17.1941 -5.89546 20.0393
rtibia 43.5018
rfoot -22.5352 -10.2771
rtoes -5.38001
lfemur -17.5665 7.92501 -13.6562
ltibia 44.3999
lfoot -24.3565 -0.776256
ltoes -18.8613
293
root 7.64967 16.7794 -16.0594 0.198175 -1.31191 -1.75833
lowerback 13.5717 0.274185 -0.0890501
upperback 3.78703 0.508136 3.59554
thorax -3.65208 0.248114 3.74065
lowerneck -18.4861 -2.82421 -9.54201
upperneck 8.65696 -2.21286 5.78426
head 5.78089 -0.954095 3.16165
rclavicle 2.38542e-015 -2.38542e-014
rhumerus -39.726 40.0701 -65.1233
rradius 135.615
rwrist -20.5845
rhand -26.3384 43.5283
rfingers 7.12502
rthumb 0.218944 13.5487
lclavicle 2.38542e-015 -2.38542e-014
lhumerus -43.7988 -22.0025 80.9642
lradius 130.986
lwrist 4.41591
lhand 3.56524 17.9776
lfingers 7.12502
lthumb 29.0005 45.7413
rfemur -17.2118 -5.86146 20.1841
rtibia 43.4354
rfoot -22.5182 -10.1047
rtoes -5.144
lfemur -17.6409 7.82459 -13.5275
ltibia 44.4408
lfoot -24.311 -0.660445
ltoes -18.5653
294
root 7.65667 16.7795 -16.0773 0.258738 -1.39647 -1.85077
lowerback 13.7013 0.216895 0.14459
upperback 3.67061 0.473167 3.65318
thorax -3.84138 0.232238 3.67613
lowerneck -18.7574 -2.77992 -9.96926
upperneck 9.22785 -2.08368 6.1443
head 6.00572 -0.881352 3.36548
rclavicle -1.55052e-014 -3.33958e-014
rhumerus -38.2729 41.4368 -61.9408
rradius 135.549
rwrist -21.9969
rhand -27.6476 44.4237
rfingers 7.12502
rthumb -1.04557 14.4465
lclavicle -1.55052e-014 -3.33958e-014
lhumerus -43.3711 -23.0961 78.2524
lradius 130.909
lwrist 5.08165
lhand 4.35063 18.2791
lfingers 7.12502
lthumb 29.7504 45.9113
rfemur -17.3439 -5.8249 20.275
rtibia 43.3931
rfoot -22.3925 -10.0458
rtoes -5.45735
lfemur -17.7975 7.72758 -13.4776
ltibia 44.4797
lfoot -24.2196 -0.476077
ltoes -17.8201
295
root 7.66526 16.7851 -16.0895 0.323186 -1.48384 -1.70091
lowerback 13.2376 0.0475644 0.560278
upperback 3.93098 0.269119 3.29034
thorax -3.30015 0.124275 3.08423
lowerneck -18.6194 -2.68672 -10.1115
upperneck 8.99369 -2.00376 6.67196
head 5.91007 -0.804311 3.56825
rclavicle 1.78906e-015 -1.66979e-014
rhumerus -35.7655 42.3045 -58.8446
rradius 135.34
rwrist -23.3538
rhand -28.918 45.1965
rfingers 7.12502
rthumb -2.27254 15.2289
lclavicle 1.78906e-015 -1.66979e-014
lhumerus -42.257 -23.8973 74.5306
lradius 130.781
lwrist 5.75984
lhand 4.76622 18.7951
lfingers 7.12502
lthumb 30.147 46.3557
rfemur -17.4888 -5.83047 20.0877
rtibia 43.3975
rfoot -22.2824 -10.1047
rtoes -6.14093
lfemur -17.9195 7.71625 -13.7091
ltibia 44.5174
lfoot -24.1565 -0.336009
ltoes -17.4223
